Simulation
nRows=20
nColumns=15
endheader
time  TH_x TH_y TH_z SC_y  SC_z  SC_x  AC_y  AC_z  AC_x  GH_y  GH_z  GH_yy  EL_x  PS_y
2.0  0.000000  0.000000  0.000000  -40.00945037155711  -1.650959671782033  -1.9346961989774807  66.8738701454035  29.85122310336572  42.88540408450512  12.757951836777712  21.454666581934596  -9.540135902040324  23.459757822785825  0.000000
2.04  0.000000  0.000000  0.000000  -36.975138076324036  5.2971629926116846  -0.2422488479556951  68.45224186201538  23.25090208557079  45.56655877613968  12.281993626723752  28.584801147324562  -12.991023623861405  20.1949898565937  0.000000
2.08  0.000000  0.000000  0.000000  -36.88457601123182  5.14976319763282  1.481904978871272  68.22771741100449  21.650867836183302  44.851006577379785  16.3766897448699  30.8387017622859  -15.60926354842078  21.480535156545262  0.000000
2.12  0.000000  0.000000  0.000000  -37.33587370202946  3.9873318830135  0.629956434503628  68.31703973878768  22.978518085348366  44.41906055157597  19.725633528162362  31.070352435412122  -19.590595599834657  22.685899662911975  0.000000
2.16  0.000000  0.000000  0.000000  -37.85465565835244  4.275867193323203  0.472795463717293  68.28420617644089  23.373332576008895  44.827927953500286  21.707977031202994  29.426025652783668  -22.415416728683304  23.040833891323864  0.000000
2.2  0.000000  0.000000  0.000000  -36.85629372561094  4.067712167679322  1.035666145380856  67.73746344145957  22.392244144105238  44.42724298980451  21.917195605616683  27.508178164748  -24.21876048899065  23.705938464246312  0.000000
2.24  0.000000  0.000000  0.000000  -36.84607621740228  3.9402137080098845  1.7137185452842625  68.49582292198541  21.946809539401894  44.37397863302259  21.745300857404853  25.417011068087813  -25.303956937655787  23.094772915262286  0.000000
2.2800000000000002  0.000000  0.000000  0.000000  -36.540685203274535  4.044246591084039  1.259856875117524  68.58501950824376  22.276247202792614  44.5204857010805  22.112674921104205  23.716939698900887  -26.465167241044828  23.394211095784062  0.000000
2.32  0.000000  0.000000  0.000000  -36.08943262838692  4.060596243961403  0.7435665074589624  68.56054630168579  22.44635059075656  44.86610814504092  23.212535780712305  22.46679164342172  -27.721819671428538  23.18560396421274  0.000000
2.36  0.000000  0.000000  0.000000  -35.78501616685756  4.395983292173522  0.5461997137096335  68.79620289712486  22.49803087876158  45.16906144193713  24.849815444372876  21.25272424677944  -29.419860477012016  23.087993536856192  0.000000
2.4  0.000000  0.000000  0.000000  -35.46038285718563  4.354637144705311  0.4175395276161998  68.94339326747553  22.433035192821652  45.28210888207344  27.27416562998035  20.182449238729884  -31.2758628155148  23.064030006422765  0.000000
2.44  0.000000  0.000000  0.000000  -35.25758000416034  4.405094506210478  0.409649900640216  69.21545869649357  22.477707471917775  45.36858948277307  30.1495571384963  19.077888225871607  -33.59989112992031  22.89391676188079  0.000000
2.48  0.000000  0.000000  0.000000  -35.23242960796417  4.297014963799603  0.4097606689876711  69.41648228045555  22.47243061958699  45.36007361739977  33.587038000959275  18.043959563213953  -36.10758588397597  22.815652167687475  0.000000
2.52  0.000000  0.000000  0.000000  -35.32408037445614  4.064071144972842  0.595204946005558  69.69377075472089  22.543532213704726  45.155833179982174  37.186030395227284  16.962488264926144  -38.854421838333245  22.663108860726975  0.000000
2.56  0.000000  0.000000  0.000000  -35.44808291818277  3.8322649198311676  0.7941954595145507  69.88974926710982  22.486492079671457  44.99801327945389  40.942130269949  15.971770837681252  -41.549372122767906  22.576473127503295  0.000000
2.6  0.000000  0.000000  0.000000  -35.60011529950372  3.648085314128582  0.9825943911205388  70.17293013330882  22.552153102996776  44.80904969479305  44.52941142217299  15.146554289910837  -44.126425416060904  22.464596301844796  0.000000
2.64  0.000000  0.000000  0.000000  -35.548510400781694  3.570211415864752  1.101896330662445  70.28466740027966  22.421867964424234  44.769683178377015  47.822215858403155  14.555662915350641  -46.23381169018084  22.342257119329457  0.000000
2.68  0.000000  0.000000  0.000000  -35.42837045959026  3.738135807792784  1.0486674753875345  70.41722341816912  22.46103154984786  44.95548838540514  50.45452971339028  14.091833176105443  -47.82827265641213  22.23595333693506  0.000000
2.72  0.000000  0.000000  0.000000  -35.14479040396999  3.9265864685701013  0.9970637519066251  70.41587123116656  22.28103366740197  45.149161532079084  52.355404689164224  13.836470160699992  -48.68610725972686  22.228358531419325  0.000000
2.7600000000000002  0.000000  0.000000  0.000000  -34.88026090436999  4.246101772944899  0.8335013971019861  70.39983612523515  22.279848044572315  45.48887232741321  53.30296975901932  13.60504125159495  -48.96414906955818  22.323335673710382  0.000000
